<?xml version="1.0" encoding="UTF-8"?>
<svg width="50px" height="50px" viewBox="0 0 50 50" version="1.1" xmlns="http://www.w3.org/2000/svg" xmlns:xlink="http://www.w3.org/1999/xlink">
    <!-- Generator: Sketch 45.2 (43514) - http://www.bohemiancoding.com/sketch -->
    <title>Page 1</title>
    <defs>
        <polygon id="path-1" points="1.52423806e-15 49.0335806 1.52423806e-15 0.000294205603 49.0340219 0.000294205603 49.0340219 49.0335806"></polygon>
    </defs>
    <g id="Page-1" stroke="none" stroke-width="1" fill="none" fill-rule="evenodd">
        <g id="Home-2" transform="translate(-132.000000, -21.000000)">
            <g id="Page-1" transform="translate(132.000000, 21.000000)">
                <g id="Group-3">
                    <mask id="mask-2" fill="white">
                        <use xlink:href="#path-1"></use>
                    </mask>
                    <g id="Clip-2"></g>
                    <path d="M24.5168884,38.1102169 C17.0097421,38.1102169 10.9240992,32.024574 10.9240992,24.5169374 C10.9240992,17.0093008 17.0097421,10.9236579 24.5168884,10.9236579 C32.0240347,10.9236579 38.1101679,17.0093008 38.1101679,24.5169374 C38.1101679,32.024574 32.0240347,38.1102169 24.5168884,38.1102169 M24.5168884,0.000294205603 C10.9765659,0.000294205603 -0.000245171335,10.9771052 -0.000245171335,24.5169374 C-0.000245171335,38.0572599 10.9765659,49.0335806 24.5168884,49.0335806 C38.0572109,49.0335806 49.0340219,38.0572599 49.0340219,24.5169374 C49.0340219,10.9771052 38.0572109,0.000294205603 24.5168884,0.000294205603" id="Fill-1" fill="#27CE7A" mask="url(#mask-2)"></path>
                </g>
                <path d="M10.9240011,24.5171335 C10.9240011,17.0094969 17.009644,10.923854 24.5167903,10.923854 L24.5167903,0 L0.000147102801,0 L0.000147102801,49.0342671 L24.5167903,49.0342671 L24.5167903,38.1104131 C17.009644,38.1104131 10.9240011,32.0247702 10.9240011,24.5171335" id="Fill-14" fill="#00AAFF"></path>
                <path d="M10.9240011,24.5171335 C10.9240011,17.0094969 17.009644,10.923854 24.5167903,10.923854 L24.5167903,0 C10.9764678,0 0.000147102801,10.976811 0.000147102801,24.5171335 C0.000147102801,38.0569657 10.9764678,49.0337768 24.5167903,49.0337768 L24.5167903,38.1104131 C17.009644,38.1104131 10.9240011,32.0247702 10.9240011,24.5171335" id="Fill-15" fill="#5A30FF"></path>
            </g>
        </g>
    </g>
</svg>
